# xmcd
#
# Track frame offsets:
#	150
#	1969
#	12405
#	25538
#	35630
#	44277
#	52566
#	74347
#	89529
#	102652
#	113781
#	127338
#	136970
#	154098
#	164240
#	173910
#	180239
#	185787
#	202014
#	203889
#	208689
#
# Disc length: 2947 seconds
#
# Revision: 1
# Processed by: cddbd v1.5.1PL2 Copyright (c) Steve Scherf et al.
# Submitted via: EasyCDDAExtractor 6.2.0.3
#
DISCID=2f0b8115
DTITLE=David Allan Coe - Hammersmith Odeon, London, England (02/24/83) [CD2
DTITLE=)
DYEAR=1983
DGENRE=Country
TTITLE0=Jody Like A Melody
TTITLE1=Along The Way
TTITLE2=I Remember
TTITLE3=Save The Day
TTITLE4=Arguement For Love
TTITLE5=Lester And Cora
TTITLE6=These Days
TTITLE7=Willie, Waylon, And Me
TTITLE8=Headed For The Country
TTITLE9=Tennessee Whiskey
TTITLE10=Get A Little Dirt On Your Hands
TTITLE11=I Could Never Give You Up For Someone Else
TTITLE12=Please Come To Boston
TTITLE13=Would You Lay With Me (In A Field Of Stone)
TTITLE14=Fire And Rain
TTITLE15=Country Road
TTITLE16=Carolina In My Mind
TTITLE17=Sweet Baby James
TTITLE18=Fire And Rain (Reprise)
TTITLE19=Patter
TTITLE20=Missing The Kid
EXTD=
EXTT0=
EXTT1=
EXTT2=
EXTT3=
EXTT4=
EXTT5=
EXTT6=
EXTT7=
EXTT8=
EXTT9=
EXTT10=
EXTT11=
EXTT12=
EXTT13=
EXTT14=
EXTT15=
EXTT16=
EXTT17=
EXTT18=
EXTT19=
EXTT20=
PLAYORDER=
